<?xml version="1.0" encoding="UTF-8"?>
<svg version="1.1" xmlns="http://www.w3.org/2000/svg" width="1024" height="1024">
<path d="M0 0 C337.92 0 675.84 0 1024 0 C1024 337.92 1024 675.84 1024 1024 C686.08 1024 348.16 1024 0 1024 C0 686.08 0 348.16 0 0 Z " fill="#1A1516" transform="translate(0,0)"/>
<path d="M0 0 C58.74 0 117.48 0 178 0 C178 48.90697674 178 48.90697674 171.3125 55.75 C170.1678125 56.86375 170.1678125 56.86375 169 58 C168.67 58.66 168.34 59.32 168 60 C167.34 60 166.68 60 166 60 C165.64421875 61.06541016 165.64421875 61.06541016 165.28125 62.15234375 C163.78607349 65.4754647 161.86813784 67.79839106 159.5 70.5625 C156.90495848 73.59987815 154.59361368 76.31909884 153 80 C152.34 80 151.68 80 151 80 C150.731875 80.556875 150.46375 81.11375 150.1875 81.6875 C148.89100504 84.21225334 147.57523677 86.63714484 146 89 C145.34 89 144.68 89 144 89 C143.7525 89.70511719 143.505 90.41023438 143.25 91.13671875 C141.83896341 94.36887443 140.0749274 96.96328902 138 99.8125 C137.29875 100.78832031 136.5975 101.76414062 135.875 102.76953125 C134.946875 103.87361328 134.946875 103.87361328 134 105 C133.34 105 132.68 105 132 105 C131.938125 105.721875 131.87625 106.44375 131.8125 107.1875 C130.74519708 110.88201012 128.74326711 112.33172869 126 115 C117.45695969 124.86814693 109.63565868 135.370499 102.41015625 146.234375 C101.94480469 146.81703125 101.47945312 147.3996875 101 148 C100.34 148 99.68 148 99 148 C98.7525 148.70511719 98.505 149.41023437 98.25 150.13671875 C96.83896341 153.36887443 95.0749274 155.96328902 93 158.8125 C92.29875 159.78832031 91.5975 160.76414062 90.875 161.76953125 C89.946875 162.87361328 89.946875 162.87361328 89 164 C88.34 164 87.68 164 87 164 C86.74605469 164.55429687 86.49210938 165.10859375 86.23046875 165.6796875 C84.80754777 168.36290992 83.12239091 170.68573641 81.3125 173.125 C77.90221729 177.7403735 74.6352129 182.4292049 71.4453125 187.19921875 C70.96835937 187.79347656 70.49140625 188.38773438 70 189 C69.34 189 68.68 189 68 189 C67.74863281 189.72703125 67.49726562 190.4540625 67.23828125 191.203125 C65.89724922 194.23208063 64.3421088 196.23962092 62.1875 198.75 C58.23013419 203.47473963 54.42285412 208.28533365 50.6875 213.1875 C50.13916504 213.90703857 49.59083008 214.62657715 49.02587891 215.36791992 C43.78406042 222.26299787 38.57692852 229.18450824 33.40258789 236.13037109 C32.40726548 237.45712114 31.40289158 238.77710238 30.39233398 240.09228516 C29.86067627 240.78757324 29.32901855 241.48286133 28.78125 242.19921875 C28.29849609 242.82530029 27.81574219 243.45138184 27.31835938 244.09643555 C25.55982148 246.63556887 24.33367227 249.29603293 23.15234375 252.140625 C21.56003803 254.70990474 19.36905247 256.13910228 17 258 C15.55419265 259.60211085 14.15712242 261.24956973 12.8125 262.9375 C12.13832031 263.77152344 11.46414063 264.60554688 10.76953125 265.46484375 C9.04035483 267.94218481 8.08413846 270.19819361 7 273 C5.5625 275.23828125 5.5625 275.23828125 4 277.3125 C3.2265625 278.35857422 3.2265625 278.35857422 2.4375 279.42578125 C1.963125 279.94527344 1.48875 280.46476562 1 281 C0.34 281 -0.32 281 -1 281 C-1 282.32 -1 283.64 -1 285 C34.64 285 70.28 285 107 285 C105.2784954 280.69623851 103.81927257 278.47710284 101 275 C101 274.34 101 273.68 101 273 C100.34 273 99.68 273 99 273 C97.60699818 271.04109119 96.27754554 269.0360882 95 267 C94.01 265.515 94.01 265.515 93 264 C93 263.01 93 262.02 93 261 C92.34 261 91.68 261 91 261 C88.60268669 257.80358226 86.61520275 254.99881788 86 251 C85.34 251 84.68 251 84 251 C82.58275512 248.87708528 81.27502706 246.7683892 80 244.5625 C77.70816876 240.09672535 77.70816876 240.09672535 74 237 C74 236.34 74 235.68 74 235 C73.34 235 72.68 235 72 235 C71.0084317 232.21121415 70.62138554 230.88942614 71 228 C72.76345526 225.03808001 74.75811547 222.42744324 76.921875 219.74609375 C79.03685371 216.95130045 80.46157076 214.13822032 82 211 C83.66666667 209.33333333 85.33333333 207.66666667 87 206 C89.13227406 203.17883739 91.18766769 200.31226305 93.23046875 197.42578125 C95 195 95 195 97 193 C97.99 193 98.98 193 100 193 C104 198.25714286 104 198.25714286 104 201 C104.66 201 105.32 201 106 201 C107.30932617 202.50952148 107.30932617 202.50952148 108.79296875 204.62109375 C109.33775879 205.38784424 109.88254883 206.15459473 110.44384766 206.94458008 C111.30695557 208.17857544 111.30695557 208.17857544 112.1875 209.4375 C113.36460328 211.0972642 114.54297591 212.75612896 115.72265625 214.4140625 C116.28871582 215.21102539 116.85477539 216.00798828 117.43798828 216.82910156 C119.27025707 219.37560579 121.17505077 221.85514463 123.125 224.3125 C125.3395791 227.10503023 127.16523136 229.94205227 129 233 C130.83106809 235.36013516 132.69157828 237.69252397 134.57421875 240.01171875 C136 242 136 242 136 244 C136.66 244 137.32 244 138 244 C138.33 244.94875 138.66 245.8975 139 246.875 C140.90601416 251.38345656 143.92859476 254.85473545 147.0625 258.5703125 C149 261 149 261 150.625 263.7421875 C151.7997659 266.12126008 151.7997659 266.12126008 154 267 C155.02178143 268.72425617 156.04130093 270.45082593 157 272.2109375 C157.91907273 273.85521605 158.95510816 275.43266224 160 277 C160 277.99 160 278.98 160 280 C160.66 280 161.32 280 162 280 C174.93119755 294.32752405 182 313.01605678 182 332 C90.92 332 -0.16 332 -94 332 C-94 326.39416058 -94 326.39416058 -91.1875 323 C-89.41346455 320.79074557 -87.865911 318.76936693 -86.4375 316.3125 C-85 314 -85 314 -82.79296875 311.859375 C-79.45891362 308.44604862 -76.69652456 304.77575847 -73.875 300.9375 C-73.35035156 300.23044922 -72.82570313 299.52339844 -72.28515625 298.79492188 C-71.77597656 298.10849609 -71.26679688 297.42207031 -70.7421875 296.71484375 C-70.26104492 296.06628418 -69.77990234 295.41772461 -69.28417969 294.74951172 C-68.25579527 293.34848458 -67.25251151 291.92904675 -66.2578125 290.50390625 C-65.84273438 290.00761719 -65.42765625 289.51132812 -65 289 C-64.34 289 -63.68 289 -63 289 C-62.87625 288.1646875 -62.87625 288.1646875 -62.75 287.3125 C-61.7605153 284.26158884 -60.05906406 282.45943762 -58 280 C-57.11873113 278.73350581 -56.24387191 277.46253097 -55.375 276.1875 C-54.59125 275.135625 -53.8075 274.08375 -53 273 C-52.34 273 -51.68 273 -51 273 C-50.87625 272.401875 -50.7525 271.80375 -50.625 271.1875 C-50 269 -50 269 -48 266 C-47.34 266 -46.68 266 -46 266 C-45.9071875 265.195625 -45.9071875 265.195625 -45.8125 264.375 C-44.84926883 261.5594012 -43.20921769 259.84683139 -41.2578125 257.64453125 C-39.73471126 255.79949376 -39.73471126 255.79949376 -38.5 252.375 C-36.80007907 248.55017791 -35.23250877 247.55593717 -32 245 C-30.5474472 243.02342499 -29.25663642 240.96645866 -27.9375 238.8984375 C-24.93965181 234.41375331 -21.65905829 230.14705181 -18.40209961 225.84863281 C-12.67199816 218.68717348 -12.67199816 218.68717348 -8 210.875 C-6.84263955 208.70494915 -5.2846 207.33166579 -3.52734375 205.640625 C-0.84443317 202.75872617 1.33602604 199.50464949 3.62109375 196.3046875 C6.39418676 192.42785803 9.25973752 188.62144639 12.125 184.8125 C12.61556885 184.15983154 13.1061377 183.50716309 13.61157227 182.8347168 C14.58308797 181.54256026 15.55492982 180.25064888 16.52709961 178.95898438 C18.04548852 176.93949944 19.55993919 174.91709877 21.07421875 172.89453125 C22.85296453 170.52103903 24.64169872 168.15633081 26.44921875 165.8046875 C27.55716797 164.35449219 27.55716797 164.35449219 28.6875 162.875 C29.43386719 161.90304687 30.18023437 160.93109375 30.94921875 159.9296875 C32.96692043 157.04725653 34.45850154 154.15558826 36 151 C36.9156055 149.61658513 37.87139341 148.25846327 38.875 146.9375 C39.34679687 146.30714844 39.81859375 145.67679688 40.3046875 145.02734375 C42 143 42 143 44.328125 140.734375 C47.51505158 137.47290043 50.17268181 133.9769318 52.875 130.3125 C53.4016626 129.60424072 53.9283252 128.89598145 54.47094727 128.16625977 C57.90288766 123.53422212 61.26783071 118.86055666 64.5390625 114.11328125 C65.93459244 112.09461362 67.36765606 110.10852854 68.8125 108.125 C70.95376232 105.25457977 70.95376232 105.25457977 72 102.875 C73 101 73 101 75.23828125 98.82421875 C78.26871449 95.72520428 80.70666829 92.47671982 83.1875 88.9375 C83.62513672 88.32583984 84.06277344 87.71417969 84.51367188 87.08398438 C86.59749894 84.14117515 88.41389228 81.23178757 90 78 C91.14976297 76.88405359 92.30055924 75.76914847 93.45703125 74.66015625 C96.23339677 71.67292752 98.50562678 68.30613938 100.8671875 64.98828125 C102.30814092 62.969363 103.77245306 60.96694427 105.2578125 58.98046875 C105.97710938 58.01753906 106.69640625 57.05460937 107.4375 56.0625 C108.09621094 55.18722656 108.75492188 54.31195313 109.43359375 53.41015625 C110.90875752 51.14039055 111.43599282 49.59402209 112 47 C111.00441574 47.00666183 110.00883148 47.01332367 108.983078 47.02018738 C99.60986351 47.0809493 90.23668887 47.12594893 80.86332226 47.15543652 C76.04413343 47.17110592 71.22510333 47.19236741 66.40600586 47.22631836 C61.75705208 47.25886641 57.10825118 47.2768434 52.45919228 47.28463173 C50.68372503 47.29018344 48.90826633 47.30102435 47.132864 47.31719017 C44.64983278 47.33890417 42.16743675 47.3419695 39.68432617 47.34057617 C38.57841629 47.35675491 38.57841629 47.35675491 37.45016479 47.3732605 C32.46883072 47.34292784 32.46883072 47.34292784 30.10176086 45.61152649 C28.63175168 43.46136958 27.31891923 41.24704757 26 39 C25.01044629 37.45160742 24.0095118 35.91045499 23 34.375 C22.505 33.61960937 22.01 32.86421875 21.5 32.0859375 C20.12488562 30.17366906 18.67793272 28.64054146 17 27 C15.97388051 25.34928604 14.97691857 23.68029994 14 22 C12.03834787 18.86135659 10.1835895 16.1835895 7.5625 13.5625 C4.66433452 10.66433452 1.91763529 7.64758713 0 4 C0 2.68 0 1.36 0 0 Z " fill="#FCFCFB" transform="translate(468,346)"/>
<path d="M0 0 C18.15 0 36.3 0 55 0 C62 11 62 11 65 16 C65.9064047 17.1298322 66.84307634 18.2362528 67.8125 19.3125 C72.26346844 24.41188112 76.25634004 29.6196199 79.625 35.5 C82.88958806 41.1063859 86.7988394 46.1768694 90.77392578 51.29101562 C93.67158775 55.05769676 95.91689726 58.70599682 98 63 C99.30144802 64.04115841 100.62797869 65.05377841 102 66 C102 66.66 102 67.32 102 68 C102.66 68 103.32 68 104 68 C104.33 69.65 104.66 71.3 105 73 C105.66 73 106.32 73 107 73 C107 73.66 107 74.32 107 75 C107.66 75 108.32 75 109 75 C109 75.99 109 76.98 109 78 C109.66 78 110.32 78 111 78 C112.64597425 80.40037912 113.89246543 82.72041012 114.9375 85.4375 C116.803037 89.9367363 118.93389853 93.28926569 123 96 C124.1875 99.125 124.1875 99.125 125 102 C125.66 102 126.32 102 127 102 C127.50660156 103.03060547 127.50660156 103.03060547 128.0234375 104.08203125 C128.46945312 104.98308594 128.91546875 105.88414062 129.375 106.8125 C129.81585938 107.70582031 130.25671875 108.59914063 130.7109375 109.51953125 C132.01866905 112.14556381 132.01866905 112.14556381 134 115 C133.4677871 119.36639456 130.70921357 122.40869766 128.125 125.8125 C127.12883445 127.14838396 126.13274295 128.48432315 125.13671875 129.8203125 C124.36400635 130.84946777 124.36400635 130.84946777 123.57568359 131.89941406 C121.01263457 135.31628326 118.47303248 138.75018952 115.9375 142.1875 C115.4729541 142.81052002 115.0084082 143.43354004 114.52978516 144.07543945 C112.40873201 146.946698 110.43936626 149.72279886 109 153 C104.73832553 152.52648061 102.84979192 149.99978097 100 147 C99.34 146.67 98.68 146.34 98 146 C97.17196555 144.50953799 96.41111095 142.9813605 95.6875 141.4375 C93.69619341 137.30079762 91.49401485 133.48810189 88.91796875 129.69140625 C88 128 88 128 88 125 C87.34 125 86.68 125 86 125 C84.848238 123.35844231 83.77865539 121.65887603 82.75 119.9375 C80.56777601 116.39024468 78.39524305 113.11150487 75.625 110 C73 107 73 107 72 104 C70.35042601 102.31641418 68.68105435 100.6521537 67 99 C58.28350097 88.37224205 58.28350097 88.37224205 56.3125 83.25 C54.56116103 78.91335113 51.90106473 75.63204167 49 72 C48.2575 71.030625 47.515 70.06125 46.75 69.0625 C45.16210628 66.91743989 45.16210628 66.91743989 43 66 C43 99.99 43 133.98 43 169 C42.34 169 41.68 169 41 169 C40.34 171.31 39.68 173.62 39 176 C38.34 176 37.68 176 37 176 C36.72542969 176.72703125 36.45085937 177.4540625 36.16796875 178.203125 C32.0136695 188.15121282 25.07939012 197.84396875 17 205 C16.34 205 15.68 205 15 205 C15 205.66 15 206.32 15 207 C9.58823529 211 9.58823529 211 7 211 C7 211.66 7 212.32 7 213 C4.35261084 214.4606285 3.10551666 215 0 215 C0 144.05 0 73.1 0 0 Z " fill="#FCFBFB" transform="translate(377,346)"/>
<path d="M0 0 C0.66 0 1.32 0 2 0 C2.51046875 1.17755859 2.51046875 1.17755859 3.03125 2.37890625 C8.05320028 13.26425062 13.78827324 18.82155554 25 23 C25 23.66 25 24.32 25 25 C24.21496094 25.3403125 23.42992187 25.680625 22.62109375 26.03125 C11.73574938 31.05320028 6.17844446 36.78827324 2 48 C1.34 48 0.68 48 0 48 C-0.3403125 47.21496094 -0.680625 46.42992187 -1.03125 45.62109375 C-6.05320028 34.73574938 -11.78827324 29.17844446 -23 25 C-23 24.34 -23 23.68 -23 23 C-22.21496094 22.6596875 -21.42992187 22.319375 -20.62109375 21.96875 C-9.73574938 16.94679972 -4.17844446 11.21172676 0 0 Z " fill="#898787" transform="translate(967,944)"/>
<path d="M0 0 C18.81 0 37.62 0 57 0 C57.66 1.32 58.32 2.64 59 4 C59.66 4 60.32 4 61 4 C61.38671875 4.81984375 61.7734375 5.6396875 62.171875 6.484375 C62.95304687 8.10085938 62.95304687 8.10085938 63.75 9.75 C64.26046875 10.81734375 64.7709375 11.8846875 65.296875 12.984375 C66.92485639 15.86694755 68.54844908 17.80426309 71 20 C70.67 20.66 70.34 21.32 70 22 C65.82930809 18.2084619 63.21436374 14.94854225 60.87890625 9.828125 C59.84022271 7.66766324 58.45726004 5.89443805 57 4 C57 3.34 57 2.68 57 2 C38.85 2 20.7 2 2 2 C2 72.95 2 143.9 2 217 C5.465 216.01 5.465 216.01 9 215 C9 214.34 9 213.68 9 213 C14.41176471 209 14.41176471 209 17 209 C17 208.34 17 207.68 17 207 C18.14576596 205.95244255 19.3439356 204.96190283 20.5625 204 C28.78594972 196.97821635 33.74042183 187.30417779 39 178 C39.66 178.33 40.32 178.66 41 179 C32.04155125 194.41828255 32.04155125 194.41828255 26.41015625 201.16796875 C24.9779854 203.02860068 23.97733963 204.87062718 23 207 C22.34 207 21.68 207 21 207 C21 207.66 21 208.32 21 209 C20.34 209 19.68 209 19 209 C18.979375 209.5775 18.95875 210.155 18.9375 210.75 C17.63374779 213.8790053 15.63766396 214.58180652 12.69140625 216.0703125 C10.81434849 216.99960775 10.81434849 216.99960775 9 219 C6.03 219.33 3.06 219.66 0 220 C0 147.4 0 74.8 0 0 Z " fill="#6E6A6A" transform="translate(375,344)"/>
<path d="M0 0 C3.40444031 2.63070387 4.40615891 5.89034974 5 10 C5.20656603 14.67355637 5.26928118 19.32828463 5 24 C3.40717152 25.59282848 1.76238331 25.12541453 -0.44626617 25.12584114 C-1.4125411 25.12844889 -2.37881602 25.13105664 -3.37437201 25.13374341 C-4.44856972 25.13151268 -5.52276744 25.12928196 -6.6295166 25.12698364 C-8.3264559 25.12932363 -8.3264559 25.12932363 -10.05767679 25.13171089 C-13.880261 25.13572622 -17.70280607 25.13252918 -21.52539062 25.12939453 C-24.25294579 25.13019782 -26.98049925 25.13249173 -29.70805359 25.13470459 C-36.36648359 25.13916306 -43.02490235 25.13818548 -49.6833328 25.13529195 C-55.09234101 25.13303822 -60.50134607 25.13272526 -65.91035461 25.13381577 C-67.06288089 25.13404561 -67.06288089 25.13404561 -68.23869053 25.13428011 C-69.79933226 25.13459982 -71.359974 25.13492403 -72.92061573 25.1352527 C-87.57223664 25.13810772 -102.22385129 25.13482013 -116.87547117 25.12945233 C-129.46109199 25.12498427 -142.04670357 25.1257602 -154.63232422 25.13037109 C-169.22970211 25.13571647 -183.82707452 25.13783302 -198.42445326 25.13475883 C-199.9795173 25.13444026 -201.53458134 25.13412589 -203.08964539 25.13381577 C-204.23747965 25.13358435 -204.23747965 25.13358435 -205.40850249 25.13334826 C-210.81419118 25.132483 -216.21987642 25.13394619 -221.62556458 25.13629532 C-228.20872882 25.13909312 -234.79188112 25.13835549 -241.37504399 25.13301457 C-244.73712856 25.13037728 -248.09917661 25.1299067 -251.46126366 25.13266373 C-255.0976905 25.135372 -258.73406025 25.13199807 -262.3704834 25.12698364 C-263.98177997 25.13032973 -263.98177997 25.13032973 -265.62562799 25.13374341 C-266.59190292 25.13113566 -267.55817784 25.12852791 -268.55373383 25.12584114 C-269.39427228 25.12567879 -270.23481074 25.12551644 -271.10082006 25.12534916 C-273 25 -273 25 -274 24 C-273.8665836 17.46259623 -271.1534586 13.89015768 -267 9 C-266.34 9.33 -265.68 9.66 -265 10 C-265.42152344 10.51949219 -265.84304688 11.03898438 -266.27734375 11.57421875 C-266.82519531 12.27160156 -267.37304688 12.96898437 -267.9375 13.6875 C-268.48277344 14.37199219 -269.02804687 15.05648437 -269.58984375 15.76171875 C-271.36653441 18.28668651 -271.36653441 18.28668651 -272 23 C-180.92 23 -89.84 23 4 23 C2.5877931 8.38003597 2.5877931 8.38003597 0 0 Z " fill="#504C4D" transform="translate(646,655)"/>
<path d="M0 0 C23.43454174 -0.0233324 46.86908174 -0.04098086 70.30363274 -0.05181217 C81.18403384 -0.0569744 92.06442774 -0.06401572 102.94482422 -0.07543945 C112.42517989 -0.08538851 121.90553034 -0.09185396 131.38589108 -0.09408849 C136.40835854 -0.09539522 141.43081108 -0.0984787 146.45327377 -0.10573006 C151.17602971 -0.11249376 155.89876449 -0.11461624 160.62152481 -0.11310768 C162.35902267 -0.11338385 164.09652121 -0.1153869 165.83401489 -0.11920547 C168.1980346 -0.12414817 170.56197347 -0.12299613 172.92599487 -0.12025452 C173.62053988 -0.12316736 174.31508489 -0.1260802 175.03067672 -0.12908131 C179.77175758 -0.11412121 179.77175758 -0.11412121 182 1 C182 16.51 182 32.02 182 48 C181.01 48.495 181.01 48.495 180 49 C180 33.49 180 17.98 180 2 C121.26 2 62.52 2 2 2 C1.67 2.99 1.34 3.98 1 5 C0.67 3.35 0.34 1.7 0 0 Z " fill="#5A5758" transform="translate(466,344)"/>
<path d="M0 0 C1.32 0 2.64 0 4 0 C4 0.66 4 1.32 4 2 C3.34 2 2.68 2 2 2 C2 35.99 2 69.98 2 105 C1.34 105 0.68 105 0 105 C0 70.35 0 35.7 0 0 Z " fill="#B8B8B8" transform="translate(418,410)"/>
<path d="M0 0 C0.495 0.99 0.495 0.99 1 2 C0.28972656 2.86882813 -0.42054688 3.73765625 -1.15234375 4.6328125 C-2.08133211 5.79639388 -3.00968413 6.96048349 -3.9375 8.125 C-4.40607422 8.69476562 -4.87464844 9.26453125 -5.35742188 9.8515625 C-8.25492031 13.5203375 -9.65651726 16.19124157 -10 21 C-10.99 21 -11.98 21 -13 21 C-13.14695312 22.09634766 -13.14695312 22.09634766 -13.296875 23.21484375 C-14.97323351 29.85508605 -20.6808919 35.01066893 -26 39 C-26.53625 39.7425 -27.0725 40.485 -27.625 41.25 C-28.07875 41.8275 -28.5325 42.405 -29 43 C-29.99 43 -30.98 43 -32 43 C-30.65961958 40.13727091 -29.13760321 37.7068948 -27.20703125 35.20703125 C-26.66256348 34.49877197 -26.1180957 33.7905127 -25.55712891 33.06079102 C-24.98140137 32.31885498 -24.40567383 31.57691895 -23.8125 30.8125 C-23.22388184 30.04800537 -22.63526367 29.28351074 -22.02880859 28.49584961 C-18.56413625 24.00058324 -15.06657195 19.5318309 -11.55859375 15.0703125 C-9.0677775 11.76170945 -6.77364893 8.31873535 -4.48046875 4.87109375 C-3.99191406 4.25363281 -3.50335937 3.63617187 -3 3 C-2.34 3 -1.68 3 -1 3 C-0.67 2.01 -0.34 1.02 0 0 Z " fill="#5E5A5D" transform="translate(539,532)"/>
<path d="M0 0 C1.32 0.66 2.64 1.32 4 2 C4 2.99 4 3.98 4 5 C3.34 4.34 2.68 3.68 2 3 C1.98969254 4.25867386 1.97938507 5.51734772 1.96876526 6.81416321 C1.87112767 18.65977509 1.76840278 30.50533332 1.66066074 42.35085773 C1.60543033 48.44116197 1.55201007 54.53147101 1.50268555 60.62182617 C1.45504385 66.49625588 1.40270099 72.37062639 1.34705925 78.24498558 C1.32663484 80.48931599 1.3079219 82.73366263 1.29092598 84.97802162 C1.266884 88.11472075 1.23682897 91.25130769 1.20532227 94.38793945 C1.1995668 95.32157822 1.19381134 96.25521698 1.18788147 97.21714783 C1.17809265 98.07110138 1.16830383 98.92505493 1.15821838 99.80488586 C1.14853956 100.91795089 1.14853956 100.91795089 1.1386652 102.05350208 C1 104 1 104 0 107 C-0.66 107 -1.32 107 -2 107 C-2.33 107.99 -2.66 108.98 -3 110 C-3.33 109.34 -3.66 108.68 -4 108 C-3.0625 105.375 -3.0625 105.375 -2 103 C-1.34 103 -0.68 103 0 103 C0 69.01 0 35.02 0 0 Z " fill="#363131" transform="translate(420,412)"/>
<path d="M0 0 C0.66 0.33 1.32 0.66 2 1 C-6.95844875 16.41828255 -6.95844875 16.41828255 -12.58984375 23.16796875 C-14.0220146 25.02860068 -15.02266037 26.87062718 -16 29 C-16.66 29 -17.32 29 -18 29 C-18 29.66 -18 30.32 -18 31 C-18.66 31 -19.32 31 -20 31 C-20.020625 31.5775 -20.04125 32.155 -20.0625 32.75 C-21.36625221 35.8790053 -23.36233604 36.58180652 -26.30859375 38.0703125 C-28.18565151 38.99960775 -28.18565151 38.99960775 -30 41 C-31.32 41 -32.64 41 -34 41 C-34 40.01 -34 39.02 -34 38 C-32.02 37.505 -32.02 37.505 -30 37 C-30 36.34 -30 35.68 -30 35 C-24.58823529 31 -24.58823529 31 -22 31 C-22 30.34 -22 29.68 -22 29 C-20.85423404 27.95244255 -19.6560644 26.96190283 -18.4375 26 C-10.21405028 18.97821635 -5.25957817 9.30417779 0 0 Z " fill="#5F5C5E" transform="translate(414,522)"/>
<path d="M0 0 C0.66 0.33 1.32 0.66 2 1 C1.54625 1.556875 1.0925 2.11375 0.625 2.6875 C-1.08901077 4.90979961 -1.08901077 4.90979961 -1.875 7.4375 C-3.31048439 10.70721444 -5.4565933 12.51862761 -8 15 C-9.49213261 17.29148936 -10.77909909 19.55819818 -12 22 C-12.66 22 -13.32 22 -14 22 C-13.77441406 22.56847656 -13.54882812 23.13695312 -13.31640625 23.72265625 C-13 26 -13 26 -14.15234375 28.18359375 C-18.23515225 33.3384745 -22.14201741 36.9721077 -28 40 C-28 35.67750434 -25.85084926 34.11604454 -23 31 C-22.01 30.34 -21.02 29.68 -20 29 C-19.27617533 26.94074861 -19.27617533 26.94074861 -19 25 C-18.34 25 -17.68 25 -17 25 C-16.7525 24.29488281 -16.505 23.58976562 -16.25 22.86328125 C-14.83896341 19.63112557 -13.0749274 17.03671098 -11 14.1875 C-10.29875 13.21167969 -9.5975 12.23585938 -8.875 11.23046875 C-8.25625 10.49441406 -7.6375 9.75835937 -7 9 C-6.34 9 -5.68 9 -5 9 C-4.731875 8.2575 -4.46375 7.515 -4.1875 6.75 C-3.05770579 4.13363446 -1.79106798 2.19812889 0 0 Z " fill="#433F3F" transform="translate(619,426)"/>
<path d="M0 0 C0.64453125 1.8359375 0.64453125 1.8359375 1 4 C-1.3125 6.625 -1.3125 6.625 -4 9 C-6.20831882 11.20831882 -6.6114458 12.49657876 -7.5 15.4375 C-8.41682554 18.46202775 -9.20971464 20.31457196 -11 23 C-14.125 24.1875 -14.125 24.1875 -17 25 C-17 25.99 -17 26.98 -17 28 C-17.66 28 -18.32 28 -19 28 C-19.33 29.32 -19.66 30.64 -20 32 C-20.99 32 -21.98 32 -23 32 C-22.67 30.68 -22.34 29.36 -22 28 C-21.34 28 -20.68 28 -20 28 C-19.78859375 27.32582031 -19.5771875 26.65164063 -19.359375 25.95703125 C-17.54989819 22.02089923 -15.00145851 19.00835524 -12.25 15.6875 C-11.16577679 14.35749577 -10.08243477 13.02677267 -9 11.6953125 C-8.48179687 11.06012695 -7.96359375 10.42494141 -7.4296875 9.77050781 C-4.85638433 6.5837601 -2.42471336 3.30030429 0 0 Z " fill="#251F1F" transform="translate(589,466)"/>
<path d="M0 0 C0.33 0.66 0.66 1.32 1 2 C-3.95 8.435 -3.95 8.435 -9 15 C-7.35 14.01 -5.7 13.02 -4 12 C-5.62059974 15.54506192 -7.72629052 18.59021257 -10 21.75 C-10.70125 22.73484375 -11.4025 23.7196875 -12.125 24.734375 C-12.74375 25.48203125 -13.3625 26.2296875 -14 27 C-14.66 27 -15.32 27 -16 27 C-16.66 28.32 -17.32 29.64 -18 31 C-18.99 30.67 -19.98 30.34 -21 30 C-21 30.66 -21 31.32 -21 32 C-21.66 31.67 -22.32 31.34 -23 31 C-22.2575 30.29875 -21.515 29.5975 -20.75 28.875 C-17.1923167 25.15560382 -14.68094251 21.23875162 -12.20703125 16.73828125 C-10.03291948 12.91861001 -7.47023113 9.50628098 -4.75 6.0625 C-4.29109375 5.47404297 -3.8321875 4.88558594 -3.359375 4.27929688 C-2.24360502 2.84971658 -1.12238102 1.42439577 0 0 Z " fill="#464243" transform="translate(506,575)"/>
<path d="M0 0 C0.33 0.66 0.66 1.32 1 2 C0.34 2.721875 -0.32 3.44375 -1 4.1875 C-3.1535853 7.21597933 -3.41176754 8.39703406 -3 12 C-4.175625 12.12375 -4.175625 12.12375 -5.375 12.25 C-6.24125 12.4975 -7.1075 12.745 -8 13 C-8.70346406 14.31429089 -9.36377892 15.65187354 -10 17 C-11.117083 18.48047145 -12.26513579 19.93790839 -13.4375 21.375 C-15.58299853 24.06573886 -17.15978301 26.32548391 -18.6875 29.4375 C-20.13346066 32.26056605 -21.04897509 32.9824052 -24 34 C-25.65 31.69 -27.3 29.38 -29 27 C-28.67 26.34 -28.34 25.68 -28 25 C-27.401875 25.825 -26.80375 26.65 -26.1875 27.5 C-25.465625 28.325 -24.74375 29.15 -24 30 C-23.01 30 -22.02 30 -21 30 C-20.60167969 29.13761719 -20.20335937 28.27523438 -19.79296875 27.38671875 C-17.94273219 23.89182746 -15.76765604 20.8878019 -13.3125 17.8125 C-12.42455854 16.68064565 -11.53786078 15.54781463 -10.65234375 14.4140625 C-10.21003418 13.84848633 -9.76772461 13.28291016 -9.31201172 12.70019531 C-6.10458253 8.54378726 -3.06011308 4.26535315 0 0 Z " fill="#8B888B" transform="translate(507,468)"/>
<path d="M0 0 C1.32 0.33 2.64 0.66 4 1 C2.39965968 4.56286292 0.24225336 7.46527478 -2.125 10.5625 C-6.4950337 16.32074538 -10.76661597 22.14016597 -15 28 C-16 26 -16 26 -15.25 22.5625 C-13.61887477 17.9137931 -13.61887477 17.9137931 -11 16 C-10.0409375 15.5978125 -10.0409375 15.5978125 -9.0625 15.1875 C-5.98240628 13.41411271 -4.73612183 11.05317977 -3 8 C-2.61500109 6.34450469 -2.27206865 4.6777567 -2 3 C-1.34 2.01 -0.68 1.02 0 0 Z " fill="#524E50" transform="translate(478,527)"/>
<path d="M0 0 C0.33 0.66 0.66 1.32 1 2 C0.45730469 2.73605469 -0.08539062 3.47210938 -0.64453125 4.23046875 C-1.35996094 5.20628906 -2.07539062 6.18210937 -2.8125 7.1875 C-3.52019531 8.15042969 -4.22789062 9.11335938 -4.95703125 10.10546875 C-6.77268437 12.6779333 -8.42207301 15.27720484 -10 18 C-9.34 18 -8.68 18 -8 18 C-8.625 19.9375 -8.625 19.9375 -10 22 C-13.125 22.75 -13.125 22.75 -16 23 C-16.33 23.99 -16.66 24.98 -17 26 C-17.33 25.34 -17.66 24.68 -18 24 C-17.39671875 23.20335937 -16.7934375 22.40671875 -16.171875 21.5859375 C-15.36449598 20.51569089 -14.55720925 19.44537465 -13.75 18.375 C-12.96109375 17.33085937 -12.1721875 16.28671875 -11.359375 15.2109375 C-9.75293185 13.0246854 -8.27421803 10.88338462 -6.828125 8.6015625 C-6.22484375 7.74304688 -5.6215625 6.88453125 -5 6 C-4.34 6 -3.68 6 -3 6 C-2.690625 5.195625 -2.38125 4.39125 -2.0625 3.5625 C-1 1 -1 1 0 0 Z " fill="#656364" transform="translate(639,400)"/>
<path d="M0 0 C0.33 0.66 0.66 1.32 1 2 C0.05698138 4.02749004 -0.95548562 6.02288349 -2 8 C-2.50803381 9.24675645 -3.00813019 10.49677852 -3.5 11.75 C-5 15 -5 15 -8 17 C-8.33 16.34 -8.66 15.68 -9 15 C-10.32 15.99 -11.64 16.98 -13 18 C-11.5 15 -11.5 15 -10 12 C-9.34 12 -8.68 12 -8 12 C-7.79375 11.319375 -7.5875 10.63875 -7.375 9.9375 C-5.54591134 6.02990149 -2.89720966 3.16142061 0 0 Z " fill="#565254" transform="translate(565,498)"/>
<path d="M0 0 C0.33 0 0.66 0 1 0 C1.02470696 5.35684878 1.04286331 10.71366444 1.05493164 16.07055664 C1.0599624 17.89315366 1.06678769 19.71574665 1.07543945 21.53833008 C1.08755997 24.15707394 1.09324086 26.77576447 1.09765625 29.39453125 C1.10281754 30.21025101 1.10797882 31.02597076 1.11329651 31.8664093 C1.1136246 35.17013929 1.05225621 37.84323138 0 41 C-0.66 41 -1.32 41 -2 41 C-2.33 41.99 -2.66 42.98 -3 44 C-3.33 43.34 -3.66 42.68 -4 42 C-3.0625 39.375 -3.0625 39.375 -2 37 C-1.34 37 -0.68 37 0 37 C0 24.79 0 12.58 0 0 Z " fill="#332D2D" transform="translate(420,478)"/>
<path d="M0 0 C0.99 0.33 1.98 0.66 3 1 C1.50923566 4.2826932 -0.38620321 6.93077441 -2.625 9.75 C-3.57246094 10.94882812 -3.57246094 10.94882812 -4.5390625 12.171875 C-5.02117187 12.77515625 -5.50328125 13.3784375 -6 14 C-6 8.93504129 -5.9146451 6.02618719 -2.4375 2.125 C-1.633125 1.42375 -0.82875 0.7225 0 0 Z " fill="#444142" transform="translate(500,499)"/>
<path d="M0 0 C0.66 0.33 1.32 0.66 2 1 C1.54625 1.556875 1.0925 2.11375 0.625 2.6875 C-1.08901077 4.90979961 -1.08901077 4.90979961 -1.875 7.4375 C-3.31048439 10.70721444 -5.4565933 12.51862761 -8 15 C-9.49213261 17.29148936 -10.77909909 19.55819818 -12 22 C-12.99 22 -13.98 22 -15 22 C-13.5360077 18.93124691 -11.85990364 16.09565257 -10 13.25 C-9.484375 12.45078125 -8.96875 11.6515625 -8.4375 10.828125 C-7.963125 10.22484375 -7.48875 9.6215625 -7 9 C-6.34 9 -5.68 9 -5 9 C-4.731875 8.2575 -4.46375 7.515 -4.1875 6.75 C-3.05770579 4.13363446 -1.79106798 2.19812889 0 0 Z " fill="#787778" transform="translate(619,426)"/>
<path d="M0 0 C0.66 0.33 1.32 0.66 2 1 C-0.28548711 3.98395405 -2.57940717 6.96131555 -4.875 9.9375 C-5.52597656 10.78763672 -6.17695312 11.63777344 -6.84765625 12.51367188 C-7.47285156 13.32255859 -8.09804688 14.13144531 -8.7421875 14.96484375 C-9.60626221 16.08814087 -9.60626221 16.08814087 -10.48779297 17.23413086 C-12 19 -12 19 -14 20 C-13.731875 19.484375 -13.46375 18.96875 -13.1875 18.4375 C-11.67650593 15.33598585 -10.34427274 12.17737194 -9 9 C-8.01 9 -7.02 9 -6 9 C-5.67 7.68 -5.34 6.36 -5 5 C-4.34 5 -3.68 5 -3 5 C-3 4.01 -3 3.02 -3 2 C-2.01 1.34 -1.02 0.68 0 0 Z " fill="#120D0D" transform="translate(575,489)"/>
<path d="M0 0 C0.33 0.66 0.66 1.32 1 2 C0.04663979 3.31611677 -0.91285774 4.62778961 -1.875 5.9375 C-2.40867187 6.66839844 -2.94234375 7.39929688 -3.4921875 8.15234375 C-5 10 -5 10 -7 11 C-7.7115625 12.4540625 -7.7115625 12.4540625 -8.4375 13.9375 C-10 17 -10 17 -13 19 C-12.71125 18.484375 -12.4225 17.96875 -12.125 17.4375 C-10.85051835 14.86657284 -10.85051835 14.86657284 -10.0625 11.375 C-9 8 -9 8 -6 6 C-5.34 6 -4.68 6 -4 6 C-2.61061923 4.03852126 -1.2739589 2.03833424 0 0 Z " fill="#5F5D5E" transform="translate(548,437)"/>
<path d="M0 0 C1 2 1 2 0.3125 5.4375 C-1.01705094 9.04628112 -1.73730489 10.15113944 -5 12 C-5.66 11.67 -6.32 11.34 -7 11 C-5.5140084 6.40693504 -3.14985318 3.56430755 0 0 Z " fill="#4D494A" transform="translate(482,607)"/>
<path d="M0 0 C0.33 0.66 0.66 1.32 1 2 C0.54625 2.556875 0.0925 3.11375 -0.375 3.6875 C-2.04437418 6.06314787 -2.96187809 8.30088304 -4 11 C-6.21934164 14.32901247 -7.34683329 14.75023244 -11 16 C-9.32076975 12.19866558 -6.88537166 9.02917298 -4.375 5.75 C-3.95476563 5.19570313 -3.53453125 4.64140625 -3.1015625 4.0703125 C-2.07061281 2.71133337 -1.03570089 1.35536165 0 0 Z " fill="#6D6A6C" transform="translate(551,516)"/>
<path d="M0 0 C0 3.93602341 -1.58022978 4.99361881 -4 8 C-4.77833534 10.18214568 -4.77833534 10.18214568 -5 12 C-5.66 12 -6.32 12 -7 12 C-7.33 13.32 -7.66 14.64 -8 16 C-8.99 16 -9.98 16 -11 16 C-10.67 14.68 -10.34 13.36 -10 12 C-9.34 12 -8.68 12 -8 12 C-7.79375 11.319375 -7.5875 10.63875 -7.375 9.9375 C-5.54591134 6.02990149 -2.89720966 3.16142061 0 0 Z " fill="#767376" transform="translate(577,482)"/>
<path d="M0 0 C1.70884005 1.62339805 3.37446717 3.29319053 5 5 C5 5.66 5 6.32 5 7 C5.66 7 6.32 7 7 7 C8.625 9 8.625 9 10 11 C9.67 11.66 9.34 12.32 9 13 C8.01 12.34 7.02 11.68 6 11 C6 10.34 6 9.68 6 9 C5.01 9.33 4.02 9.66 3 10 C1.11608215 6.73454239 0.50712033 3.71888239 0 0 Z " fill="#4B4948" transform="translate(562,612)"/>
<path d="M0 0 C0.33 0.99 0.66 1.98 1 3 C0.03542166 4.35917857 -0.96854629 5.69084721 -2 7 C-2.1546875 7.9590625 -2.1546875 7.9590625 -2.3125 8.9375 C-3.44786341 12.34359023 -6.19473937 13.85128973 -9 16 C-9.66 15.67 -10.32 15.34 -11 15 C-10.28972656 14.08476563 -9.57945312 13.16953125 -8.84765625 12.2265625 C-7.91918172 11.02611058 -6.99080118 9.82558597 -6.0625 8.625 C-5.59392578 8.02171875 -5.12535156 7.4184375 -4.64257812 6.796875 C-2.09448545 3.54591619 -2.09448545 3.54591619 0 0 Z " fill="#261F20" transform="translate(507,575)"/>
<path d="M0 0 C1.04449911 3.13349732 0.93423645 3.98968256 0 7 C-0.66 7 -1.32 7 -2 7 C-2 7.66 -2 8.32 -2 9 C-2.66 9 -3.32 9 -4 9 C-4.268125 9.598125 -4.53625 10.19625 -4.8125 10.8125 C-5.98493467 12.97224808 -7.19369282 14.35790256 -9 16 C-9.66 15.67 -10.32 15.34 -11 15 C-10.62488281 14.5875 -10.24976563 14.175 -9.86328125 13.75 C-6.04203965 9.43786842 -2.91486912 4.96559562 0 0 Z " fill="#251E20" transform="translate(409,533)"/>
<path d="M0 0 C1.65 0.33 3.3 0.66 5 1 C5.66 2.98 6.32 4.96 7 7 C6.01 6.34 5.02 5.68 4 5 C4 4.34 4 3.68 4 3 C0.01618925 5.16264012 -2.88983545 7.71211176 -6 11 C-4.18690997 7.22272911 -2.0926741 3.62730178 0 0 Z " fill="#7C797A" transform="translate(564,536)"/>
<path d="M0 0 C0 0.99 0 1.98 0 3 C-0.66 3 -1.32 3 -2 3 C-2.226875 3.886875 -2.45375 4.77375 -2.6875 5.6875 C-4.17188513 9.43380532 -6.02403485 11.33729434 -9 14 C-8.71125 13.505 -8.4225 13.01 -8.125 12.5 C-7.08701455 10.19336566 -6.65732269 8.33597599 -6.1875 5.875 C-5.70703125 3.7734375 -5.70703125 3.7734375 -5 2 C-2.375 0.5 -2.375 0.5 0 0 Z " fill="#423F41" transform="translate(552,554)"/>
<path d="M0 0 C0.99 0.33 1.98 0.66 3 1 C2.401875 1.680625 1.80375 2.36125 1.1875 3.0625 C-0.57704029 5.43202553 -1.51643429 7.02782229 -2.5625 9.6875 C-4 13 -4 13 -7 15 C-6.71125 14.484375 -6.4225 13.96875 -6.125 13.4375 C-4.86269872 10.88388184 -4.86269872 10.88388184 -4.0625 7.5 C-3.08867593 4.29210895 -2.18165541 2.47915387 0 0 Z " fill="#363334" transform="translate(560,539)"/>
<path d="M0 0 C0.33 0.66 0.66 1.32 1 2 C-0.21238345 5.00381571 -1.82827785 7.59794368 -4 10 C-7.3125 10.5 -7.3125 10.5 -10 10 C-10 9.01 -10 8.02 -10 7 C-8.9171875 6.938125 -8.9171875 6.938125 -7.8125 6.875 C-3.76725183 5.61647835 -2.50518743 3.36410883 0 0 Z " fill="#110D0D" transform="translate(491,494)"/>
<path d="M0 0 C1.17175781 0.13921875 2.34351563 0.2784375 3.55078125 0.421875 C4.73027344 0.55078125 5.90976562 0.6796875 7.125 0.8125 C8.48044922 0.99039063 8.48044922 0.99039063 9.86328125 1.171875 C9.53328125 1.831875 9.20328125 2.491875 8.86328125 3.171875 C6.31386752 3.48428871 3.85966612 3.68490921 1.30078125 3.796875 C0.2344043 3.85488281 0.2344043 3.85488281 -0.85351562 3.9140625 C-2.614143 4.00859283 -4.37539603 4.09133317 -6.13671875 4.171875 C-4.38883512 0.91588961 -3.79107271 0.20773001 0 0 Z " fill="#0F0B0B" transform="translate(475.13671875,624.828125)"/>
<path d="M0 0 C0.33 0.66 0.66 1.32 1 2 C0.34 2 -0.32 2 -1 2 C-1.061875 2.61875 -1.12375 3.2375 -1.1875 3.875 C-2 6 -2 6 -4.3125 7.0625 C-5.199375 7.371875 -6.08625 7.68125 -7 8 C-7.70125 8.556875 -8.4025 9.11375 -9.125 9.6875 C-9.74375 10.120625 -10.3625 10.55375 -11 11 C-11.99 10.67 -12.98 10.34 -14 10 C-12.68 9.67 -11.36 9.34 -10 9 C-10 8.34 -10 7.68 -10 7 C-4.58823529 3 -4.58823529 3 -2 3 C-2 2.34 -2 1.68 -2 1 C-1.34 0.67 -0.68 0.34 0 0 Z " fill="#837E80" transform="translate(394,550)"/>
<path d="M0 0 C0.62890625 1.85546875 0.62890625 1.85546875 1 4 C-1.0625 6.3125 -1.0625 6.3125 -4 9 C-6.04607885 11.29466786 -8.02455096 13.64439582 -10 16 C-10 11.7349984 -7.55526586 9.49967621 -5 6.3125 C-4.52304687 5.70599609 -4.04609375 5.09949219 -3.5546875 4.47460938 C-2.37623606 2.97797604 -1.18894812 1.48830827 0 0 Z " fill="#817F82" transform="translate(589,466)"/>
<path d="M0 0 C3.63559661 3.43361902 6.36113346 6.7973607 9 11 C8.67 11.66 8.34 12.32 8 13 C6.62437146 11.71034824 5.29233607 10.37310707 4 9 C4 8.34 4 7.68 4 7 C3.34 7 2.68 7 2 7 C1.34 4.69 0.68 2.38 0 0 Z " fill="#716E70" transform="translate(454,458)"/>
<path d="M0 0 C0.66 0 1.32 0 2 0 C2.66 0.99 3.32 1.98 4 3 C4.99 3.33 5.98 3.66 7 4 C7.33 6.31 7.66 8.62 8 11 C6 9.625 6 9.625 4 8 C4 7.34 4 6.68 4 6 C3.34 6 2.68 6 2 6 C1.34 4.02 0.68 2.04 0 0 Z " fill="#5F5B5B" transform="translate(626,620)"/>
<path d="M0 0 C1.32 0.33 2.64 0.66 4 1 C2.79618552 3.49361571 1.54571278 5.68143083 0 8 C-0.66 8 -1.32 8 -2 8 C-2.6875 6.25 -2.6875 6.25 -3 4 C-1.5625 1.75 -1.5625 1.75 0 0 Z " fill="#3B3738" transform="translate(478,527)"/>
<path d="M0 0 C0 3 0 3 -2.3125 5.5 C-3.199375 6.325 -4.08625 7.15 -5 8 C-5.8971875 8.8971875 -5.8971875 8.8971875 -6.8125 9.8125 C-7.204375 10.204375 -7.59625 10.59625 -8 11 C-8.8125 9.3125 -8.8125 9.3125 -9 7 C-6.36359864 3.83631836 -3.82792868 1.5595265 0 0 Z " fill="#342F30" transform="translate(552,432)"/>
<path d="M0 0 C0.66 0.33 1.32 0.66 2 1 C-0.64 4.63 -3.28 8.26 -6 12 C-7.43088528 9.13822943 -6.59991697 7.06624227 -6 4 C-5.38125 3.896875 -4.7625 3.79375 -4.125 3.6875 C-1.63473516 3.12474627 -1.63473516 3.12474627 0 0 Z " fill="#555153" transform="translate(458,558)"/>
<path d="M0 0 C0.763125 0.825 1.52625 1.65 2.3125 2.5 C4.75434142 5.34055197 4.75434142 5.34055197 8 5 C8.33 4.34 8.66 3.68 9 3 C9.66 3.33 10.32 3.66 11 4 C9.68 5.65 8.36 7.3 7 9 C3.17475764 7.549046 1.80909034 5.61818068 0 2 C0 1.34 0 0.68 0 0 Z " fill="#706C70" transform="translate(478,493)"/>
<path d="M0 0 C0.33 0.66 0.66 1.32 1 2 C0.34 2.721875 -0.32 3.44375 -1 4.1875 C-3.1535853 7.21597933 -3.41176754 8.39703406 -3 12 C-4.32 12.33 -5.64 12.66 -7 13 C-6.65986985 7.55791766 -3.29703472 4.06331802 0 0 Z " fill="#636061" transform="translate(507,468)"/>
<path d="M0 0 C0.99 0.33 1.98 0.66 3 1 C1.55746343 4.36591866 -0.33264727 6.51047079 -3 9 C-3.36923077 3.46153846 -3.36923077 3.46153846 -1.5 1.125 C-1.005 0.75375 -0.51 0.3825 0 0 Z " fill="#444244" transform="translate(514,480)"/>
<path d="M0 0 C0 3.60573896 -0.81707462 4.41336566 -3 7.1875 C-3.556875 7.90292969 -4.11375 8.61835938 -4.6875 9.35546875 C-5.120625 9.89816406 -5.55375 10.44085938 -6 11 C-6.64453125 9.1640625 -6.64453125 9.1640625 -7 7 C-4.6875 4.375 -4.6875 4.375 -2 2 C-1.34 1.34 -0.68 0.68 0 0 Z " fill="#130E0D" transform="translate(643,400)"/>
<path d="M0 0 C3 1 3 1 4.16796875 3.06640625 C4.50441406 3.89011719 4.84085937 4.71382813 5.1875 5.5625 C5.53167969 6.38878906 5.87585938 7.21507812 6.23046875 8.06640625 C6.48441406 8.70449219 6.73835938 9.34257812 7 10 C2.95868733 8.65289578 2.09711566 6.61571666 0 3 C0 2.01 0 1.02 0 0 Z " fill="#120E0E" transform="translate(468,394)"/>
<path d="M0 0 C2.4375 1.1875 2.4375 1.1875 5 3 C5.8125 5.6875 5.8125 5.6875 6 8 C5.01 7.34 4.02 6.68 3 6 C2.01 6.495 2.01 6.495 1 7 C0.67 4.69 0.34 2.38 0 0 Z " fill="#3C3839" transform="translate(445,447)"/>
<path d="M0 0 C0.66 0.66 1.32 1.32 2 2 C1.40606618 3.29640378 0.79942011 4.58698839 0.1875 5.875 C-0.14894531 6.59429687 -0.48539063 7.31359375 -0.83203125 8.0546875 C-2 10 -2 10 -5 12 C-4.67 11.443125 -4.34 10.88625 -4 10.3125 C-2.82019681 8.02766639 -2.82019681 8.02766639 -3.0625 5.4375 C-3 3 -3 3 -1.5 1.1875 C-1.005 0.795625 -0.51 0.40375 0 0 Z " fill="#3D3A3A" transform="translate(574,398)"/>
<path d="M0 0 C0.99 0 1.98 0 3 0 C3 0.66 3 1.32 3 2 C3.99 2.33 4.98 2.66 6 3 C6.6875 5.0625 6.6875 5.0625 7 7 C6.01 6.67 5.02 6.34 4 6 C4 5.34 4 4.68 4 4 C3.01 4.33 2.02 4.66 1 5 C0.67 3.35 0.34 1.7 0 0 Z " fill="#494747" transform="translate(539,581)"/>
<path d="M0 0 C1.98 0.495 1.98 0.495 4 1 C3.5359375 1.7734375 3.5359375 1.7734375 3.0625 2.5625 C1.70940713 5.66665423 1.38640576 8.65115007 1 12 C0.34 11.67 -0.32 11.34 -1 11 C-1.0270043 9.54176788 -1.04639787 8.08339325 -1.0625 6.625 C-1.07410156 5.81289063 -1.08570313 5.00078125 -1.09765625 4.1640625 C-1 2 -1 2 0 0 Z " fill="#565354" transform="translate(539,567)"/>
<path d="M0 0 C0.66 0.33 1.32 0.66 2 1 C1.54625 1.556875 1.0925 2.11375 0.625 2.6875 C-1.11050352 4.94954292 -1.11050352 4.94954292 -2 7.6875 C-2.33 8.450625 -2.66 9.21375 -3 10 C-3.99 10.33 -4.98 10.66 -6 11 C-4.54955729 6.89041233 -2.48889248 3.56741255 0 0 Z " fill="#6F6D6F" transform="translate(619,426)"/>
<path d="M0 0 C0.33 0.99 0.66 1.98 1 3 C-0.8125 5.6875 -0.8125 5.6875 -3 8 C-3.66 8 -4.32 8 -5 8 C-3.8141763 4.62496331 -2.72426311 2.35277269 0 0 Z " fill="#140F0F" transform="translate(458,555)"/>
<path d="M0 0 C0.33 1.32 0.66 2.64 1 4 C0.01 4.66 -0.98 5.32 -2 6 C-2.66 5.67 -3.32 5.34 -4 5 C-4 5.66 -4 6.32 -4 7 C-4.66 6.67 -5.32 6.34 -6 6 C-4 4 -2 2 0 0 Z " fill="#363133" transform="translate(489,600)"/>
<path d="M0 0 C0.66 0.33 1.32 0.66 2 1 C-0.97 4.96 -0.97 4.96 -4 9 C-5 7 -5 7 -4.75 4.9375 C-4.5025 4.298125 -4.255 3.65875 -4 3 C-3.01 2.67 -2.02 2.34 -1 2 C-0.67 1.34 -0.34 0.68 0 0 Z " fill="#9A999C" transform="translate(491,594)"/>
<path d="M0 0 C0.99 0.33 1.98 0.66 3 1 C1.75023244 4.65316671 1.32901247 5.78065836 -2 8 C-2.125 5.125 -2.125 5.125 -2 2 C-1.34 1.34 -0.68 0.68 0 0 Z " fill="#4A4648" transform="translate(435,586)"/>
<path d="M0 0 C0.33 0.66 0.66 1.32 1 2 C-0.25 4.625 -0.25 4.625 -2 7 C-2.99 7 -3.98 7 -5 7 C-2.25 1.125 -2.25 1.125 0 0 Z " fill="#C7C7C6" transform="translate(552,556)"/>
<path d="M0 0 C0.33 0 0.66 0 1 0 C1 1.65 1 3.3 1 5 C0.01 5 -0.98 5 -2 5 C-2.66 6.32 -3.32 7.64 -4 9 C-4.66 8.67 -5.32 8.34 -6 8 C-5.02471263 6.66382648 -4.04466681 5.3311249 -3.0625 4 C-2.24458984 2.88625 -2.24458984 2.88625 -1.41015625 1.75 C-0.94480469 1.1725 -0.47945312 0.595 0 0 Z " fill="#292425" transform="translate(528,548)"/>
<path d="M0 0 C0.33 0 0.66 0 1 0 C1.3125 2.1875 1.3125 2.1875 1 5 C-1.17546604 7.51896068 -3.010197 9.5050985 -6 11 C-4.87548273 8.0280615 -3.77706209 5.66559313 -2 3 C-1.34 3 -0.68 3 0 3 C0 2.01 0 1.02 0 0 Z " fill="#252021" transform="translate(420,516)"/>
<path d="M0 0 C0.33 0 0.66 0 1 0 C0.67 2.97 0.34 5.94 0 9 C-0.66 9 -1.32 9 -2 9 C-2.33 9.99 -2.66 10.98 -3 12 C-3.33 11.34 -3.66 10.68 -4 10 C-3.0625 7.375 -3.0625 7.375 -2 5 C-1.34 5 -0.68 5 0 5 C0 3.35 0 1.7 0 0 Z " fill="#5D5A5C" transform="translate(420,510)"/>
<path d="M0 0 C0.66 0 1.32 0 2 0 C2.25 2.8125 2.25 2.8125 2 6 C0 7.875 0 7.875 -2 9 C-1.34 6.03 -0.68 3.06 0 0 Z " fill="#3C393A" transform="translate(495,504)"/>
<path d="M0 0 C0.66 0 1.32 0 2 0 C1.875 1.75 1.875 1.75 1 4 C-2.0625 6.25 -2.0625 6.25 -5 8 C-3.63055898 5.05043472 -2.12169591 2.47531189 0 0 Z " fill="#A5A5A6" transform="translate(386,656)"/>
<path d="M0 0 C0 3.57575896 -1.08840607 5.05295935 -3 8 C-3.99 7.67 -4.98 7.34 -6 7 C-4.02 4.69 -2.04 2.38 0 0 Z " fill="#100A0A" transform="translate(516,567)"/>
<path d="M0 0 C0.33 0.66 0.66 1.32 1 2 C0.22265625 3.7265625 0.22265625 3.7265625 -0.9375 5.625 C-1.618125 6.73875 -2.29875 7.8525 -3 9 C-3.66 9 -4.32 9 -5 9 C-3.7508258 5.54074837 -2.32472205 2.85306797 0 0 Z " fill="#100B0B" transform="translate(418,522)"/>
<path d="M0 0 C0.66 0 1.32 0 2 0 C2 0.99 2 1.98 2 3 C1.34 3 0.68 3 0 3 C-0.28875 3.804375 -0.5775 4.60875 -0.875 5.4375 C-2 8 -2 8 -4 9 C-2.80100302 5.9168649 -1.52299523 2.93720508 0 0 Z " fill="#423B3D" transform="translate(494,591)"/>
<path d="M0 0 C0.66 1.32 1.32 2.64 2 4 C0.35 5.65 -1.3 7.3 -3 9 C-2.01 6.03 -1.02 3.06 0 0 Z " fill="#555353" transform="translate(567,408)"/>
</svg>
